<?xml version="1.0" encoding="UTF-8"?><svg id="a" xmlns="http://www.w3.org/2000/svg" viewBox="0 0 185.08 85.9"><path fill="#ffffff" d="M18.13,1.27l1.91,15.24c.03.35-.09.58-.2.7-.11.13-.32.29-.68.29h-1.8c-.26,0-.49-.09-.68-.25-.19-.17-.31-.39-.33-.64l-1.04-9.27-.09.31-2.97,9.2c-.07.22-.2.42-.39.56-.2.15-.42.23-.68.23h-1.75c-.25,0-.47-.07-.67-.21-.2-.14-.34-.33-.41-.57l-3.09-9.49-1.01,9.22c-.05.28-.17.49-.36.66-.19.17-.41.25-.66.25h-1.73c-.35,0-.56-.16-.68-.29-.11-.13-.23-.35-.21-.69L2.53,1.25c.02-.28.15-.53.36-.73.22-.19.48-.29.79-.29h2.09c.25,0,.48.08.68.23.19.15.33.34.4.57l3.56,10.97.1-.33L13.99,1c.07-.23.2-.42.4-.56.19-.14.42-.21.67-.21h1.91c.31,0,.57.1.79.29.22.2.34.45.37.75ZM35.18,16.3c.03.08.04.18.04.3,0,.26-.1.48-.28.65-.18.16-.4.25-.65.25h-1.66c-.25,0-.48-.08-.68-.23-.19-.15-.33-.34-.4-.57l-.95-3.05h-4.83l-.95,3.05c-.07.23-.2.42-.39.57-.2.15-.43.23-.68.23h-1.61c-.25,0-.47-.09-.65-.25h0c-.18-.17-.28-.4-.28-.66,0-.12.01-.22.04-.3L26.25.95c.07-.23.21-.42.41-.56.19-.14.42-.21.66-.21h1.8c.25,0,.47.07.67.21.2.14.34.33.41.57l4.99,15.34ZM28.2,5.82l-1.38,4.49h2.76l-1.38-4.49ZM47.87,16.12c.1.18.15.35.15.53,0,.24-.09.46-.27.62-.17.16-.39.24-.63.24h-1.89c-.39,0-.71-.17-.91-.5l-3.71-5.97h-.54v5.61c0,.24-.09.45-.25.61-.16.16-.37.25-.61.25h-1.84c-.24,0-.45-.09-.61-.25t0,0c-.16-.16-.25-.37-.25-.61V1.66c0-.38.13-.7.4-.97.26-.26.59-.4.97-.4h4.3c1,0,1.93.24,2.76.72.84.48,1.51,1.13,2,1.95.49.82.74,1.73.74,2.7,0,1.18-.36,2.25-1.07,3.18-.61.8-1.38,1.39-2.3,1.75l3.56,5.52ZM40.06,7.64h1.97c.61,0,1.09-.18,1.48-.55.38-.37.56-.82.56-1.4s-.19-1.06-.57-1.44c-.38-.38-.87-.56-1.48-.56h-1.97v3.95ZM56.53,8.8l5.81-7.2c.12-.17.19-.35.19-.52,0-.21-.08-.4-.24-.55-.15-.15-.36-.24-.6-.24h-2.09c-.4,0-.75.16-.98.46l-5.18,6.51h-.2V1.16c0-.24-.09-.45-.25-.61s-.37-.25-.61-.25h-1.84c-.24,0-.45.09-.61.25-.16.16-.25.37-.25.61v15.49c0,.24.09.45.25.61s.37.25.61.25h1.84c.24,0,.45-.09.61-.25.16-.16.25-.37.25-.61v-6.02h.32l5.07,6.42c.24.3.57.47.96.47l2.14.02c.24,0,.44-.08.6-.24.16-.15.24-.35.24-.55,0-.17-.06-.34-.19-.53l-5.82-7.41ZM72.85.3h-7.85c-.38,0-.7.13-.97.4-.26.26-.4.59-.4.97v14.48c0,.38.13.7.4.97h0c.26.26.59.4.97.4h7.85c.24,0,.45-.09.61-.25.16-.16.25-.37.25-.61v-1.73c0-.24-.09-.45-.25-.61-.16-.16-.37-.25-.61-.25h-5.66v-3.81h4.11c.24,0,.45-.09.61-.25.16-.16.25-.37.25-.61v-1.63c0-.24-.09-.45-.25-.61-.16-.16-.37-.25-.61-.25h-4.11v-3.16h5.66c.24,0,.45-.09.61-.25.16-.16.25-.37.25-.61v-1.73c0-.24-.09-.45-.25-.61-.16-.16-.37-.25-.61-.25ZM86.79.55c.16.16.25.37.25.61v1.73c0,.24-.09.45-.25.61-.16.16-.37.25-.61.25h-3.49v12.91c0,.24-.09.45-.25.61-.16.16-.37.25-.61.25h-1.84c-.24,0-.45-.09-.61-.25h0c-.16-.16-.25-.37-.25-.61V3.74h-3.49c-.24,0-.45-.09-.61-.25-.16-.16-.25-.37-.25-.61v-1.73c0-.24.09-.45.25-.61.16-.16.37-.25.61-.25h10.54c.24,0,.45.09.61.25ZM79.64,16.99h0s0,0,0,0ZM96.08.3h-6.72c-.24,0-.45.09-.61.25-.16.16-.25.37-.25.61v1.59c0,.24.09.45.25.61.16.16.37.25.61.25h1.58v10.6h-1.58c-.24,0-.45.09-.61.25-.16.16-.25.37-.25.61v1.59c0,.24.09.45.25.61.16.16.37.25.61.25h6.72c.24,0,.45-.09.61-.25.16-.16.25-.37.25-.61v-1.59c0-.24-.09-.45-.25-.61-.16-.16-.37-.25-.61-.25h-1.58V3.6h1.58c.24,0,.45-.09.61-.25s.25-.37.25-.61v-1.59c0-.24-.09-.45-.25-.61s-.37-.25-.61-.25ZM110.74.3h-1.66c-.24,0-.45.09-.61.25-.16.16-.25.37-.25.61v9.73l-5.94-10.07c-.22-.34-.55-.51-.93-.51h-1.89c-.28,0-.54.11-.74.31-.2.2-.3.46-.3.74v15.31c0,.24.09.45.25.61.16.16.37.25.61.25h1.66c.23,0,.44-.08.6-.22.12-.11.26-.31.26-.63V6.96l5.92,10.03c.22.34.55.51.93.51h1.91c.28,0,.54-.11.74-.31.2-.2.31-.45.31-.74V1.16c0-.24-.09-.45-.25-.61s-.37-.25-.61-.25ZM125.85,7.72c-.26-.26-.59-.4-.97-.4h-4.86c-.24,0-.45.09-.61.25-.16.16-.25.37-.25.61v1.66c0,.24.09.45.25.61.16.16.37.25.61.25h2.71v.75c0,.53-.13,1.02-.39,1.47-.26.45-.61.8-1.06,1.06-.9.52-1.98.53-2.89-.02-.45-.27-.81-.65-1.08-1.11-.27-.46-.4-.96-.4-1.49v-4.9c0-.53.13-1.03.4-1.49s.63-.84,1.08-1.11c.44-.27.93-.41,1.44-.41,1.1,0,1.97.36,2.67,1.09.24.28.51.33.69.33.23,0,.44-.1.64-.3l1.03-1.08c.18-.22.27-.45.27-.69s-.08-.46-.23-.64c-.62-.7-1.38-1.24-2.25-1.61-.87-.36-1.83-.55-2.84-.55-1.17,0-2.26.29-3.24.87-.98.58-1.77,1.36-2.34,2.34-.58.98-.87,2.07-.87,3.24v4.9c0,1.17.29,2.26.87,3.24.57.98,1.36,1.77,2.34,2.34.98.58,2.07.87,3.24.87s2.23-.29,3.22-.87c.98-.57,1.77-1.36,2.34-2.34.58-.98.87-2.07.87-3.24v-2.67c0-.38-.13-.7-.4-.97Z"/><path fill="#ffffff" d="M8.97,23.19c-.07-.23-.21-.43-.41-.57-.19-.14-.42-.21-.67-.21h-1.8c-.25,0-.47.07-.67.21-.2.14-.34.33-.4.56L.04,38.53c-.03.08-.04.18-.04.3,0,.26.1.48.28.66.18.16.4.25.65.25h1.61c.25,0,.48-.08.68-.23.19-.15.33-.34.39-.57l.95-3.05h4.83l.95,3.05c.07.23.2.42.4.57.2.15.42.23.68.23h1.66c.25,0,.47-.09.65-.25.18-.17.28-.4.28-.65,0-.11-.01-.21-.04-.3l-4.99-15.34ZM8.36,32.55h-2.76l1.38-4.49,1.38,4.49ZM24.81,23.44c-1.02-.6-2.17-.9-3.41-.9h-4.51c-.38,0-.7.13-.97.4-.26.26-.4.59-.4.97v14.48c0,.38.13.7.4.97.26.26.59.4.97.4h4.51c1.24,0,2.39-.3,3.41-.9,1.02-.6,1.84-1.43,2.43-2.46.59-1.03.89-2.19.89-3.43v-3.61c0-1.24-.3-2.4-.89-3.43s-1.41-1.86-2.43-2.46ZM24.57,29.26v3.73c0,.6-.15,1.16-.44,1.66-.3.5-.7.91-1.2,1.2-.51.3-1.04.44-1.64.44h-2.2v-10.32h2.2c.59,0,1.14.15,1.64.44.5.3.91.7,1.2,1.2.29.5.44,1.05.44,1.64ZM42.02,22.78c.19.17.28.4.28.66,0,.12-.01.21-.04.3l-4.99,15.35c-.07.23-.2.42-.4.56-.19.14-.42.21-.67.21h-1.8c-.25,0-.47-.07-.67-.21-.2-.14-.34-.33-.41-.57l-4.99-15.35c-.03-.08-.04-.18-.04-.3,0-.26.1-.48.28-.65.18-.16.4-.25.65-.25h1.61c.25,0,.48.08.68.23.2.15.33.34.4.57l3.37,10.86,3.37-10.86c.07-.23.2-.42.39-.57.2-.15.43-.23.68-.23h1.66c.25,0,.47.09.65.25ZM53.58,22.78c.16.16.25.37.25.61v1.73c0,.24-.09.45-.25.61-.16.16-.37.25-.61.25h-5.66v3.16h4.11c.24,0,.45.09.61.25.16.16.25.37.25.61v1.63c0,.24-.09.45-.25.61-.16.16-.37.25-.61.25h-4.11v3.81h5.66c.24,0,.45.09.61.25s.25.37.25.61v1.73c0,.24-.09.45-.25.61-.16.16-.37.25-.61.25h-7.85c-.37,0-.71-.14-.97-.4s-.4-.59-.4-.97v-14.48c0-.38.13-.7.4-.97.26-.26.59-.4.97-.4h7.85c.24,0,.45.09.61.25ZM63.14,32.84c.92-.37,1.7-.96,2.3-1.75.71-.93,1.07-2,1.07-3.18,0-.97-.25-1.88-.74-2.7-.49-.82-1.16-1.48-2-1.95-.84-.48-1.77-.72-2.76-.72h-4.3c-.38,0-.7.13-.97.4-.26.26-.4.59-.4.97v14.98c0,.24.09.45.25.61h0c.16.16.37.25.61.25h1.84c.24,0,.45-.09.61-.25.16-.16.25-.37.25-.61v-5.61h.54l3.71,5.97c.21.32.52.49.91.49h1.89c.25,0,.46-.08.63-.24.18-.16.27-.38.27-.62,0-.17-.05-.34-.15-.53l-3.56-5.52ZM62.91,27.93c0,.57-.18,1.03-.56,1.4-.38.37-.87.55-1.48.55h-1.97v-3.95h1.97c.61,0,1.09.18,1.48.56.38.38.57.84.57,1.44ZM55.85,39.23s0,0,0,0h0ZM78.76,22.54h-10.54c-.24,0-.45.09-.61.25-.16.16-.25.37-.25.61v1.73c0,.24.09.45.25.61s.37.25.61.25h3.49v12.91c0,.24.09.45.25.61h0c.16.16.37.25.61.25h1.84c.24,0,.45-.09.61-.25.16-.16.25-.37.25-.61v-12.91h3.49c.24,0,.45-.09.61-.25.16-.16.25-.37.25-.61v-1.73c0-.24-.09-.45-.25-.61s-.37-.25-.61-.25ZM72.22,39.23s0,0,0,0h0ZM89.24,22.78c.16.16.25.37.25.61v1.59c0,.24-.09.45-.25.61-.16.16-.37.25-.61.25h-1.58v10.6h1.58c.24,0,.45.09.61.25s.25.37.25.61v1.59c0,.24-.09.45-.25.61-.16.16-.37.25-.61.25h-6.72c-.24,0-.45-.09-.61-.25-.16-.16-.25-.37-.25-.61v-1.59c0-.24.09-.45.25-.61.16-.16.37-.25.61-.25h1.58v-10.6h-1.58c-.24,0-.45-.09-.61-.25-.16-.16-.25-.37-.25-.61v-1.59c0-.24.09-.45.25-.61.16-.16.37-.25.61-.25h6.72c.24,0,.45.09.61.25ZM100.85,31.96c.58.79.88,1.72.88,2.78s-.25,1.94-.73,2.74c-.49.8-1.18,1.43-2.05,1.88-.86.44-1.87.66-2.98.66-.86,0-1.73-.14-2.57-.42-.83-.28-1.62-.67-2.34-1.16-.09-.05-.24-.19-.31-.45-.05-.2-.04-.4.05-.57l.81-1.47c.23-.46.83-.59,1.3-.33,1.1.69,2.12,1.03,3.04,1.03.72,0,1.28-.17,1.68-.5.38-.32.57-.73.57-1.24,0-.33-.09-.59-.26-.81-.2-.24-.47-.45-.8-.63-.37-.19-.93-.44-1.65-.72l-.67-.28c-1.08-.46-2.01-1.06-2.75-1.78-.79-.76-1.18-1.87-1.18-3.31,0-1,.23-1.9.68-2.68.46-.78,1.1-1.39,1.91-1.82,1.46-.77,3.45-.84,5.32-.22.84.28,1.61.67,2.28,1.17.08.05.23.18.3.45.05.21.04.41-.05.58l-.76,1.46c-.24.47-.84.6-1.3.34-.58-.37-1.13-.64-1.64-.8-1.28-.4-2.18-.29-2.73.23-.32.3-.48.69-.48,1.17s.17.89.53,1.21c.4.36,1.08.74,2,1.12.12.04.65.25,1.58.63.97.4,1.76,1,2.33,1.77ZM110.93,22.78c.16.16.25.37.25.61v1.59c0,.24-.09.45-.25.61-.16.16-.37.25-.61.25h-1.58v10.6h1.58c.24,0,.45.09.61.25.16.16.25.37.25.61v1.59c0,.24-.09.45-.25.61-.16.16-.37.25-.61.25h-6.72c-.24,0-.45-.09-.61-.25-.16-.16-.25-.37-.25-.61v-1.59c0-.24.09-.45.25-.61.16-.16.37-.25.61-.25h1.58v-10.6h-1.58c-.24,0-.45-.09-.61-.25-.16-.16-.25-.37-.25-.61v-1.59c0-.24.09-.45.25-.61.16-.16.37-.25.61-.25h6.72c.24,0,.45.09.61.25ZM125.84,22.78c.16.16.25.37.25.61v15.31c0,.28-.11.54-.31.74-.2.2-.46.31-.74.31h-1.91c-.39,0-.71-.18-.93-.51l-5.92-10.03v9.69c0,.33-.14.53-.26.63-.16.15-.37.22-.6.22h-1.66c-.24,0-.45-.09-.61-.25-.16-.16-.25-.37-.25-.61v-15.31c0-.28.11-.54.31-.74.2-.2.45-.31.74-.31h1.89c.39,0,.71.18.93.51l5.94,10.07v-9.73c0-.24.09-.45.25-.61.16-.16.37-.25.61-.25h1.66c.24,0,.45.09.61.25ZM140.38,29.95c.26.27.4.59.4.97v2.67c0,1.17-.29,2.26-.87,3.24-.58.98-1.36,1.77-2.34,2.34-.98.58-2.06.87-3.22.87s-2.26-.29-3.24-.87c-.98-.58-1.77-1.36-2.34-2.34-.58-.98-.87-2.07-.87-3.24v-4.9c0-1.17.29-2.26.87-3.24.57-.98,1.36-1.77,2.34-2.34.98-.58,2.07-.87,3.24-.87,1.01,0,1.97.18,2.84.55.88.37,1.64.91,2.25,1.61.15.18.23.4.23.64s-.09.47-.27.69l-1.03,1.08c-.2.2-.41.3-.64.3-.18,0-.45-.06-.69-.33-.69-.73-1.57-1.09-2.67-1.09-.52,0-.99.13-1.44.41-.45.27-.81.65-1.08,1.11-.27.46-.4.96-.4,1.49v4.9c0,.53.13,1.03.4,1.49.27.46.63.84,1.08,1.11.9.55,1.98.54,2.89.02.45-.26.8-.61,1.06-1.06.26-.45.39-.94.39-1.47v-.75h-2.71c-.24,0-.45-.09-.61-.25-.16-.16-.25-.37-.25-.61v-1.66c0-.24.09-.45.25-.61.16-.16.37-.25.61-.25h4.86c.38,0,.7.13.97.4ZM161.87,40.85c-.16-.16-.37-.25-.61-.25h-.92c-.56,0-.99-.08-1.28-.24-.2-.11-.54-.39-1.01-1.11l-1.01-1.51c.91-.77,1.63-1.69,2.15-2.74.57-1.15.85-2.38.85-3.64v-.28c0-.24-.09-.45-.25-.61-.16-.16-.37-.25-.61-.25h-1.73c-.24,0-.45.09-.61.25-.16.16-.25.37-.25.61v.28c0,.73-.15,1.43-.45,2.1-.24.54-.56,1.02-.96,1.45l-2.76-4.2c1-.86,1.77-1.65,2.29-2.34.6-.79.9-1.65.9-2.54,0-.68-.19-1.33-.55-1.91-.36-.58-.88-1.05-1.53-1.39-1.34-.69-3.13-.66-4.44.07-.69.39-1.23.93-1.63,1.61-.39.68-.59,1.46-.59,2.3,0,.69.12,1.36.37,2.01.2.54.47,1.09.79,1.65-.9.74-1.59,1.45-2.06,2.12-.54.76-.82,1.63-.82,2.6,0,1.51.56,2.73,1.66,3.62,1.08.87,2.53,1.32,4.33,1.32.98,0,1.95-.15,2.88-.46l1.47,2.24h0c1.04,1.56,2.54,2.36,4.48,2.36h1.27c.24,0,.45-.09.61-.25.16-.16.25-.37.25-.61v-1.66c0-.24-.09-.45-.25-.61ZM152.12,36.47c-.27.04-.54.06-.81.06-.9,0-1.59-.16-2.05-.49-.43-.3-.63-.71-.63-1.28,0-.33.09-.63.28-.92.17-.26.45-.56.85-.91l2.36,3.54ZM150.33,26.41c0-.42.09-.74.27-.93.17-.19.41-.28.74-.28.31,0,.54.08.72.24.17.15.25.34.25.59,0,.22-.12.47-.34.75-.23.28-.64.68-1.24,1.2-.26-.56-.39-1.09-.39-1.57Z"/><path fill="#ffffff" d="M11.97,60.08c.2.2.31.45.31.72,0,.21-.07.41-.21.59-.64.72-1.39,1.27-2.25,1.64-.86.37-1.79.56-2.77.56-1.14,0-2.21-.29-3.17-.87-.96-.58-1.74-1.36-2.31-2.34-.57-.98-.86-2.07-.86-3.24v-4.9c0-1.17.29-2.26.86-3.24.57-.98,1.34-1.77,2.31-2.34,1.8-1.08,4.1-1.11,5.94-.32.86.37,1.61.91,2.21,1.61.15.18.23.4.23.64s-.09.47-.27.69l-1.03,1.08c-.2.2-.41.3-.64.3-.18,0-.45-.06-.69-.33-.67-.74-1.5-1.09-2.55-1.09-.5,0-.95.13-1.38.4-.43.27-.78.65-1.04,1.11-.26.46-.39.97-.39,1.5v4.9c0,.53.13,1.03.39,1.5.26.46.61.84,1.04,1.11.43.27.88.4,1.38.4,1.05,0,1.88-.36,2.55-1.1.24-.27.5-.33.67-.33s.41.05.66.29l1.02,1.07ZM25.84,48.99c.58.98.87,2.07.87,3.24v4.9c0,1.17-.29,2.26-.87,3.24-.58.98-1.37,1.77-2.36,2.34-.99.58-2.08.87-3.25.87s-2.26-.29-3.25-.87c-.99-.57-1.78-1.36-2.36-2.34-.58-.98-.87-2.07-.87-3.24v-4.9c0-1.17.29-2.26.87-3.24.58-.98,1.37-1.77,2.36-2.34,1.98-1.15,4.52-1.15,6.5,0,.99.58,1.78,1.36,2.36,2.34ZM22.75,50.74c-.27-.46-.63-.84-1.08-1.11-.44-.27-.93-.41-1.44-.41s-.99.13-1.44.41c-.45.27-.81.65-1.08,1.11-.26.46-.4.96-.4,1.49v4.9c0,.53.13,1.03.4,1.49.27.46.63.84,1.08,1.11.9.54,1.98.54,2.88,0h0c.45-.27.81-.65,1.08-1.11.27-.46.4-.96.4-1.49v-4.9c0-.53-.13-1.03-.4-1.49ZM44.99,46.3c-.22-.19-.48-.29-.79-.29h-1.91c-.25,0-.47.07-.67.21-.2.14-.34.33-.4.56l-3.48,10.67-.1.33-3.56-10.97c-.07-.23-.2-.42-.4-.57-.2-.15-.42-.23-.68-.23h-2.09c-.31,0-.57.1-.79.29-.22.19-.34.45-.36.73l-1.91,15.27c-.03.34.09.56.2.69.11.13.32.29.68.29h1.73c.24,0,.47-.09.66-.25.19-.16.31-.38.36-.66l1.01-9.22,3.09,9.49c.07.23.21.43.41.57.19.14.42.21.67.21h1.75c.25,0,.48-.08.68-.23.19-.15.33-.34.39-.56l2.97-9.2.09-.31,1.04,9.27c.02.25.14.47.33.64.19.17.43.25.68.25h1.8c.35,0,.56-.16.68-.29.11-.13.23-.35.2-.71l-1.91-15.24c-.02-.29-.15-.55-.37-.75ZM65.59,46.3c-.22-.19-.48-.29-.79-.29h-1.91c-.25,0-.47.07-.66.21-.2.14-.34.33-.41.56l-3.48,10.67-.1.33-3.56-10.97c-.07-.23-.2-.42-.4-.57-.2-.15-.42-.23-.68-.23h-2.09c-.31,0-.57.1-.79.29-.22.19-.34.45-.36.73l-1.91,15.27c-.03.34.09.56.2.69.11.13.32.29.68.29h1.73c.24,0,.47-.09.66-.25.19-.16.31-.38.36-.66l1.01-9.22,3.09,9.49c.07.24.21.43.41.57.19.14.42.21.67.21h1.75c.25,0,.48-.08.68-.23.19-.15.33-.34.39-.56l2.97-9.2.09-.31,1.04,9.27c.02.25.14.47.33.64.19.17.42.25.68.25h1.8c.35,0,.56-.16.68-.29.11-.13.23-.35.2-.71l-1.91-15.24c-.02-.29-.15-.55-.37-.75ZM81.38,46.08h-1.84c-.24,0-.45.09-.61.25-.16.16-.25.37-.25.61v9.85c0,1-.27,1.82-.81,2.42-.54.6-1.23.89-2.1.89s-1.59-.29-2.13-.89c-.55-.61-.81-1.4-.81-2.42v-9.85c0-.24-.09-.45-.25-.61s-.37-.25-.61-.25h-1.84c-.24,0-.45.09-.61.25-.16.16-.25.37-.25.61v9.74c0,1.3.28,2.49.84,3.53.56,1.05,1.34,1.88,2.32,2.48.98.6,2.11.91,3.34.91s2.33-.3,3.31-.89c.98-.59,1.77-1.43,2.32-2.48.56-1.05.84-2.24.84-3.54v-9.74c0-.24-.09-.45-.25-.61s-.37-.25-.61-.25ZM96.82,46.08h-1.66c-.24,0-.45.09-.61.25-.16.16-.25.37-.25.61v9.73l-5.94-10.07c-.22-.33-.55-.51-.93-.51h-1.89c-.28,0-.54.11-.74.31-.2.2-.31.45-.31.74v15.31c0,.24.09.45.25.61h0c.16.16.37.25.61.25h1.66c.23,0,.44-.08.6-.22.12-.11.26-.31.26-.63v-9.69l5.92,10.03c.22.34.55.51.93.51h1.91c.28,0,.54-.11.74-.31.2-.2.31-.45.31-.74v-15.31c0-.24-.09-.45-.25-.61-.16-.16-.37-.25-.61-.25ZM107.22,46.08h-6.72c-.24,0-.45.09-.61.25-.16.16-.25.37-.25.61v1.59c0,.24.09.45.25.61.16.16.37.25.61.25h1.58v10.6h-1.58c-.24,0-.45.09-.61.25-.16.16-.25.37-.25.61v1.59c0,.24.09.45.25.61s.37.25.61.25h6.72c.24,0,.45-.09.61-.25.16-.16.25-.37.25-.61v-1.59c0-.24-.09-.45-.25-.61-.16-.16-.37-.25-.61-.25h-1.58v-10.6h1.58c.24,0,.45-.09.61-.25.16-.16.25-.37.25-.61v-1.59c0-.24-.09-.45-.25-.61-.16-.16-.37-.25-.61-.25ZM119.32,59.01c-.2-.19-.42-.29-.66-.29-.17,0-.43.06-.67.33-.67.74-1.5,1.1-2.55,1.1-.5,0-.95-.13-1.38-.4-.43-.27-.78-.65-1.04-1.11-.26-.46-.39-.97-.39-1.5v-4.9c0-.53.13-1.03.39-1.5.26-.46.61-.84,1.04-1.11.43-.27.88-.4,1.38-.4,1.05,0,1.88.36,2.55,1.09.24.28.51.33.69.33.23,0,.44-.1.64-.3l1.03-1.08c.18-.22.27-.45.27-.69s-.08-.46-.23-.64c-.6-.7-1.35-1.24-2.21-1.61-1.85-.78-4.14-.75-5.94.32-.96.58-1.74,1.36-2.31,2.34-.57.98-.86,2.07-.86,3.24v4.9c0,1.17.29,2.26.86,3.24.57.98,1.34,1.77,2.31,2.34.97.58,2.04.87,3.17.87.98,0,1.92-.19,2.77-.56.86-.37,1.61-.92,2.25-1.64.14-.19.21-.39.21-.59,0-.27-.11-.52-.31-.72l-1.02-1.07ZM135.32,62.08c.03.08.04.18.04.3,0,.26-.1.48-.28.65-.18.16-.4.25-.65.25h-1.66c-.25,0-.48-.08-.68-.23-.19-.15-.33-.34-.4-.57l-.95-3.05h-4.83l-.95,3.05c-.07.23-.2.42-.39.57-.2.15-.42.23-.68.23h-1.61c-.25,0-.47-.09-.65-.25-.18-.17-.28-.4-.28-.66,0-.12.01-.22.04-.3l4.99-15.35c.07-.23.2-.42.4-.56.19-.14.42-.21.67-.21h1.8c.25,0,.47.07.67.21.2.14.34.33.41.57l4.99,15.34ZM128.33,51.6l-1.38,4.49h2.76l-1.38-4.49ZM145.43,46.33c.16.16.25.37.25.61v1.73c0,.24-.09.45-.25.61-.16.16-.37.25-.61.25h-3.49v12.91c0,.24-.09.45-.25.61-.16.16-.37.25-.61.25h-1.84c-.24,0-.45-.09-.61-.25h0c-.16-.16-.25-.37-.25-.61v-12.91h-3.49c-.24,0-.45-.09-.61-.25s-.25-.37-.25-.61v-1.73c0-.24.09-.45.25-.61.16-.16.37-.25.61-.25h10.54c.24,0,.45.09.61.25ZM138.28,62.77s0,0,0,0h0ZM155.21,46.08h-6.72c-.24,0-.45.09-.61.25-.16.16-.25.37-.25.61v1.59c0,.24.09.45.25.61.16.16.37.25.61.25h1.58v10.6h-1.58c-.24,0-.45.09-.61.25-.16.16-.25.37-.25.61v1.59c0,.24.09.45.25.61s.37.25.61.25h6.72c.24,0,.45-.09.61-.25.16-.16.25-.37.25-.61v-1.59c0-.24-.09-.45-.25-.61-.16-.16-.37-.25-.61-.25h-1.58v-10.6h1.58c.24,0,.45-.09.61-.25.16-.16.25-.37.25-.61v-1.59c0-.24-.09-.45-.25-.61-.16-.16-.37-.25-.61-.25ZM169.02,48.99c.58.98.87,2.07.87,3.24v4.9c0,1.17-.29,2.26-.87,3.24-.58.98-1.37,1.77-2.36,2.34-.99.58-2.08.87-3.25.87s-2.26-.29-3.25-.87c-.99-.57-1.78-1.36-2.36-2.34-.58-.98-.87-2.07-.87-3.24v-4.9c0-1.17.29-2.26.87-3.24.58-.98,1.37-1.77,2.36-2.34,1.98-1.15,4.52-1.15,6.5,0,.99.58,1.78,1.36,2.36,2.34ZM165.93,50.74c-.27-.46-.63-.84-1.08-1.11-.45-.27-.92-.41-1.44-.41s-.99.13-1.44.41c-.45.27-.81.65-1.08,1.11-.27.46-.4.96-.4,1.49v4.9c0,.53.13,1.03.4,1.49.27.46.63.84,1.08,1.11.9.55,1.98.55,2.88,0h0c.45-.27.81-.65,1.08-1.11.26-.46.4-.96.4-1.49v-4.9c0-.53-.13-1.03-.4-1.49ZM184.83,46.33c-.16-.16-.37-.25-.61-.25h-1.66c-.24,0-.45.09-.61.25-.16.16-.25.37-.25.61v9.73l-5.94-10.07c-.22-.33-.55-.51-.93-.51h-1.89c-.28,0-.54.11-.74.31-.2.2-.31.45-.31.74v15.31c0,.24.09.45.25.61h0c.16.16.37.25.61.25h1.66c.23,0,.44-.08.6-.22.12-.11.26-.31.26-.63v-9.69l5.92,10.03c.22.34.55.51.93.51h1.91c.28,0,.54-.11.74-.3.2-.2.31-.45.31-.74v-15.31c0-.24-.09-.45-.25-.61Z"/><path fill="#ffffff" d="M9.85,78.74c.53.69.79,1.52.79,2.49s-.23,1.78-.68,2.49c-.45.71-1.08,1.25-1.88,1.62-.8.38-1.71.56-2.74.56-.77,0-1.53-.11-2.29-.32-.76-.21-1.42-.51-1.97-.9-.06-.03-.1-.08-.13-.16-.02-.08-.02-.15.01-.23l.53-1.04c.08-.14.18-.21.32-.21.08,0,.14.02.18.05,1.18.71,2.3,1.06,3.36,1.06.98,0,1.79-.25,2.42-.75.63-.5.94-1.17.94-2.01,0-.55-.14-1-.41-1.36-.28-.35-.62-.64-1.04-.85-.41-.21-.99-.47-1.73-.76-.97-.37-1.74-.71-2.32-1.02-.58-.31-1.09-.77-1.52-1.37-.43-.6-.64-1.37-.64-2.32s.23-1.76.68-2.43c.45-.67,1.05-1.16,1.81-1.48s1.58-.48,2.49-.48c.74,0,1.45.1,2.15.31.7.21,1.32.49,1.85.84.06.03.1.09.13.17s.01.17-.03.24l-.51.94c-.05.09-.12.15-.21.18-.09.03-.18.02-.28-.05-1.03-.61-2.06-.92-3.08-.92-.94,0-1.68.23-2.24.69-.56.46-.84,1.09-.84,1.89,0,.55.14,1.01.41,1.37.28.36.62.65,1.02.86s.99.47,1.74.76c.14.06.66.26,1.55.6.9.34,1.61.85,2.14,1.54ZM23.51,72.11c.51.86.76,1.8.76,2.81v5.36c0,1.01-.25,1.95-.76,2.81-.51.86-1.19,1.54-2.06,2.05s-1.81.76-2.82.76-1.95-.25-2.82-.76c-.87-.51-1.55-1.19-2.06-2.05-.51-.86-.76-1.8-.76-2.81v-5.36c0-1.01.25-1.95.76-2.81.51-.86,1.19-1.54,2.06-2.05.87-.51,1.81-.76,2.82-.76s1.95.25,2.82.76,1.55,1.19,2.06,2.05ZM22.38,74.92c0-.67-.17-1.31-.51-1.9-.34-.59-.79-1.06-1.37-1.42-.58-.35-1.2-.53-1.88-.53s-1.3.18-1.88.53c-.58.35-1.03.83-1.37,1.42-.34.59-.51,1.22-.51,1.9v5.36c0,.68.17,1.31.51,1.9.34.59.79,1.06,1.37,1.42.58.35,1.2.53,1.88.53s1.3-.18,1.88-.53c.58-.35,1.03-.82,1.37-1.42.34-.59.51-1.22.51-1.9v-5.36ZM38.05,69.61h-1.24c-.09,0-.17.03-.23.09-.06.06-.09.14-.09.23v10.01c0,.83-.16,1.56-.5,2.19-.33.63-.78,1.11-1.35,1.45-.57.34-1.2.51-1.91.51s-1.37-.17-1.93-.51c-.57-.34-1.02-.82-1.35-1.45-.33-.63-.5-1.36-.5-2.19v-10.01c0-.09-.03-.17-.09-.23-.06-.06-.14-.09-.23-.09h-1.24c-.09,0-.17.03-.23.09-.06.06-.09.14-.09.23v9.9c0,1.18.25,2.24.75,3.17.5.93,1.18,1.65,2.04,2.15.86.51,1.82.76,2.88.76s1.99-.25,2.85-.76c.86-.51,1.54-1.22,2.04-2.15.5-.93.75-1.98.75-3.17v-9.9c0-.09-.03-.17-.09-.23-.06-.06-.14-.09-.23-.09ZM51.06,69.61h-9.85c-.09,0-.17.03-.23.09-.06.06-.09.14-.09.23v1.13c0,.09.03.17.09.23.06.06.14.09.23.09h3.98v13.9c0,.09.03.17.09.23.06.06.14.09.23.09h1.24c.09,0,.17-.03.23-.09.06-.06.09-.14.09-.23v-13.9h3.98c.09,0,.17-.03.23-.09s.09-.14.09-.23v-1.13c0-.09-.03-.17-.09-.23-.06-.06-.14-.09-.23-.09ZM65.12,69.61h-1.24c-.09,0-.17.03-.23.09-.06.06-.09.14-.09.23v6.38h-7.73v-6.38c0-.09-.03-.17-.09-.23-.06-.06-.14-.09-.23-.09h-1.24c-.09,0-.17.03-.23.09-.06.06-.09.14-.09.23v15.35c0,.09.03.17.09.23.06.06.14.09.23.09h1.24c.09,0,.17-.03.23-.09.06-.06.09-.14.09-.23v-7.25h7.73v7.25c0,.09.03.17.09.23.06.06.14.09.23.09h1.24c.09,0,.17-.03.23-.09.06-.06.09-.14.09-.23v-15.35c0-.09-.03-.17-.09-.23-.06-.06-.14-.09-.23-.09ZM86.55,85.1s.02.08.02.16c0,.09-.03.17-.1.24-.07.07-.16.1-.26.1h-1.13c-.09,0-.18-.03-.26-.08-.08-.05-.14-.13-.17-.22l-1.29-4.01h-5.98l-1.29,4.01c-.02.09-.07.16-.16.22-.09.05-.18.08-.28.08h-1.13c-.14,0-.24-.05-.31-.15-.07-.1-.08-.22-.03-.36l4.99-15.19c.03-.09.09-.17.17-.22.08-.05.17-.08.26-.08h1.52c.09,0,.18.03.26.08s.14.13.17.22l5,15.19ZM82.82,79.62l-2.46-7.62-2.46,7.62h4.93ZM96.75,69.61h-7.57c-.23,0-.43.08-.59.24s-.24.36-.24.59v14.85c0,.09.03.17.09.23.06.06.14.09.23.09h1.24c.09,0,.17-.03.23-.09.06-.06.09-.14.09-.23v-6.79h4.97c.09,0,.17-.03.23-.09.06-.06.09-.14.09-.23v-1.08c0-.09-.03-.17-.09-.23-.06-.06-.14-.09-.23-.09h-4.97v-5.39h6.51c.09,0,.17-.03.23-.09s.09-.14.09-.23v-1.13c0-.09-.03-.17-.09-.23-.06-.06-.14-.09-.23-.09ZM108.65,84.96c.05.06.07.14.07.23,0,.12-.04.22-.13.3-.08.08-.19.11-.31.11h-1.17c-.15,0-.27-.07-.35-.21l-4.03-6.51h-1.8v6.4c0,.09-.03.17-.09.23s-.14.09-.23.09h-1.24c-.09,0-.17-.03-.23-.09-.06-.06-.09-.14-.09-.23v-14.85c0-.23.08-.43.24-.59s.36-.24.59-.24h4c.86,0,1.65.21,2.36.62.71.41,1.28.98,1.69,1.69.41.71.62,1.49.62,2.34,0,1.12-.35,2.1-1.06,2.95-.71.84-1.6,1.37-2.67,1.59l3.82,6.17ZM103.75,77.11c.83,0,1.51-.27,2.06-.81.54-.54.82-1.21.82-2.03s-.27-1.54-.82-2.08c-.55-.54-1.23-.82-2.06-.82h-2.81v5.73h2.81ZM117.48,69.61h-6.54c-.09,0-.17.03-.23.09-.06.06-.09.14-.09.23v1.08c0,.09.03.17.09.23.06.06.14.09.23.09h2.32v12.54h-2.32c-.09,0-.17.03-.23.09-.06.06-.09.14-.09.23v1.08c0,.09.03.17.09.23.06.06.14.09.23.09h6.54c.09,0,.17-.03.23-.09.06-.06.09-.14.09-.23v-1.08c0-.09-.03-.17-.09-.23-.06-.06-.14-.09-.23-.09h-2.32v-12.54h2.32c.09,0,.17-.03.23-.09s.09-.14.09-.23v-1.08c0-.09-.03-.17-.09-.23-.06-.06-.14-.09-.23-.09ZM122.29,73c.32-.59.76-1.06,1.31-1.42.55-.35,1.16-.53,1.82-.53,1.12,0,2.06.37,2.83,1.1.11.11.22.16.35.16.11,0,.21-.04.32-.12.09-.09.3-.32.62-.69.08-.09.11-.19.11-.3,0-.12-.04-.21-.11-.28-.54-.54-1.16-.95-1.86-1.23-.71-.28-1.47-.43-2.28-.43-1,0-1.92.25-2.76.76-.84.51-1.51,1.19-2,2.05-.49.86-.74,1.8-.74,2.81v5.39c0,1.01.25,1.95.74,2.81.49.86,1.16,1.54,2,2.05.84.51,1.76.76,2.76.76.81,0,1.57-.14,2.28-.43.71-.28,1.33-.69,1.86-1.23.08-.08.11-.17.11-.28,0-.12-.04-.22-.11-.3-.32-.37-.53-.6-.62-.69-.11-.08-.22-.12-.32-.12-.12,0-.24.05-.35.16-.77.74-1.71,1.1-2.83,1.1-.66,0-1.27-.18-1.82-.53s-.99-.82-1.31-1.42c-.32-.59-.48-1.22-.48-1.9v-5.39c0-.67.16-1.31.48-1.9ZM143.38,85.26c0,.09-.03.17-.1.24-.07.07-.16.1-.26.1h-1.13c-.09,0-.18-.03-.26-.08-.08-.05-.14-.13-.17-.22l-1.29-4.01h-5.98l-1.29,4.01c-.02.09-.07.16-.16.22-.09.05-.18.08-.28.08h-1.13c-.14,0-.24-.05-.31-.15-.07-.1-.08-.22-.03-.36l4.99-15.19c.03-.09.09-.17.17-.22.08-.05.17-.08.26-.08h1.52c.09,0,.18.03.26.08.08.05.14.13.17.22l4.99,15.19s.02.08.02.16ZM139.63,79.62l-2.46-7.62-2.46,7.62h4.93Z"/></svg>