<svg id="a" xmlns="http://www.w3.org/2000/svg" viewBox="0 0 185.08 85.9">
    <path fill="#FFFFFF" d="M18.13,1.27l1.91,15.24c.03.35-.09.58-.2.7-.11.13-.32.29-.68.29h-1.8c-.26,0-.49-.09-.68-.25-.19-.17-.31-.39-.33-.64l-1.04-9.27-.09.31-2.97,9.2c-.07.22-.2.42-.39.56-.2.15-.42.23-.68.23h-1.75c-.25,0-.47-.07-.67-.21-.2-.14-.34-.33-.41-.57l-3.09-9.49-1.01,9.22c-.05.28-.17.49-.36.66-.19.17-.41.25-.66.25h-1.73c-.35,0-.56-.16-.68-.29-.11-.13-.23-.35-.21-.69L2.53,1.25c.02-.28.15-.53.36-.73.22-.19.48-.29.79-.29h2.09c.25,0,.48.08.68.23.19.15.33.34.4.57l3.56,10.97.1-.33L13.99,1c.07-.23.2-.42.4-.56.19-.14.42-.21.67-.21h1.91c.31,0,.57.1.79.29.22.2.34.45.37.75ZM35.18,16.3c.03.08.04.18.04.3,0,.26-.1.48-.28.65-.18.16-.4.25-.65.25h-1.66c-.25,0-.48-.08-.68-.23-.19-.15-.33-.34-.4-.57l-.95-3.05h-4.83l-.95,3.05c-.07.23-.2.42-.39.57-.2.15-.43.23-.68.23h-1.61c-.25,0-.47-.09-.65-.25h0c-.18-.17-.28-.4-.28-.66,0-.12.01-.22.04-.3L26.25.95c.07-.23.21-.42.41-.56.19-.14.42-.21.66-.21h1.8c.25,0,.47.07.67.21.2.14.34.33.41.57l4.99,15.34ZM28.2,5.82l-1.38,4.49h2.76l-1.38-4.49ZM47.87,16.12c.1.18.15.35.15.53,0,.24-.09.46-.27.62-.17.16-.39.24-.63.24h-1.89c-.39,0-.71-.17-.91-.5l-3.71-5.97h-.54v5.61c0,.24-.09.45-.25.61-.16.16-.37.25-.61.25h-1.84c-.24,0-.45-.09-.61-.25t0,0c-.16-.16-.25-.37-.25-.61V1.66c0-.38.13-.7.4-.97.26-.26.59-.4.97-.4h4.3c1,0,1.93.24,2.76.72.84.48,1.51,1.13,2,1.95.49.82.74,1.73.74,2.7,0,1.18-.36,2.25-1.07,3.18-.61.8-1.38,1.39-2.3,1.75l3.56,5.52ZM40.06,7.64h1.97c.61,0,1.09-.18,1.48-.55.38-.37.56-.82.56-1.4s-.19-1.06-.57-1.44c-.38-.38-.87-.56-1.48-.56h-1.97v3.95ZM56.53,8.8l5.81-7. ```xml
2c.12-.17.19-.35.19-.52,0-.21-.08-.4-.24-.55-.15-.15-.36-.24-.6-.24h-2.09c-.4,0-.75.16-.98.46l-5.18,6.51h-.2V1.16c0-.24-.09-.45-.25-.61s-.37-.25-.61-.25h-1.84c-.24,0-.45.09-.61.25-.16.16-.25.37-.25.61v15.49c0,.24.09.45.25.61s.37.25.61.25h1.84c.24,0,.45-.09.61-.25.16-.16.25-.37.25-.61v-6.02h.32l5.07,6.42c.24.3.57.47.96.47l2.14.02c.24,0,.44-.08.6-.24.16-.15.24-.35.24-.55,0-.17-.06-.34-.19-.53l-5.82-7.41ZM72.85.3h-7.85c-.38,0-.7.13-.97.4-.26.26-.4.59-.4.97v14.48c0,.38.13.7.4.97h0c.26.26.59.4.97.4h7.85c.24,0,.45-.09.61-.25.16-.16.25-.37.25-.61v-1.73c0-.24-.09-.45-.25-.61-.16-.16-.37-.25-.61-.25h-5.66v-3.81h4.11c.24,0,.45-.09.61-.25.16-.16.25-.37.25-.61v-1.63c0-.24-.09-.45-.25-.61-.16-.16-.37-.25-.61-.25h-4.11v-3.16h5.66c.24,0,.45-.09.61-.25.16-.16.25-.37.25-.61v-1.73c0-.24-.09-.45-.25-.61-.16-.16-.37-.25-.61-.25ZM86.79.55c.16.16.25.37.25.61v1.73c0,.24-.09.45-.25.61-.16.16-.37.25-.61.25h-3.49v12.91c0,.24-.09.45-.25.61-.16.16-.37.25-.61.25h-1.84c-.24,0-.45-.09-.61-.25h0c-.16-.16-.25-.37-.25-.61V3.74h-3.49c-.24,0-.45-.09-.61-.25-.16-.16-.25-.37-.25-.61v-1.73c0-.24.09-.45.25-.61.16-.16.37-.25.61-.25h10.54c.24,0,.45.09.61.25ZM79.64,16.99h0s0,0,0,0ZM96.08.3h-6.72c-.24,0-.45.09-.61.25-.16.16-.25.37-.25.61v1.59c0,.24.09.45.25.61.16.16.37.25.61.25h1.58v10.6h-1.58c-.24,0-.45.09-.61.25-.16.16-.25.37-.25.61v1.59c0,.24.09.45.25.61.16.16.37.25.61.25h6.72c.24,0,.45-.09.61-.25.16-.16.25-.37.25-.61v-1.59c0-.24-.09-.45-.25-.61-.16-.16-.37-.25-.61-.25h-1.58V3.6h1.58c.24,0,.45-.09.61-.25s.25-.37.25-.61v-1.59c0-.24-.09-.45-.25-.61s-.37-.25-.61-.25ZM110.74.3h-1.66c-.24,0-.45.09-.61.25-.16.16-.25.37-.25.61v9.73l- 5.94-10.07c-.22-.34-.55-.51-.93-.51h-1.89c-.28,0-.54.11-.74.31-.2.2-.3.46-.3.74v15.31c0,.24.09.45.25.61.16.16.37.25.61.25h1.66c.23,0,.44-.08.6-.22.12-.11.26-.31.26-.63V6.96l5.92,10.03c.22.34.55.51.93.51h1.91c.28,0,.54-.11.74-.31.2-.2.31-.45.31-.74V1.16c0-.24-.09-.45-.25-.61s-.37-.25-.61-.25ZM125.85,7.72c-.26-.26-.59-.4-.97-.4h-4.86c-.24,0-.45.09-.61.25-.16.16-.25.37-.25.61v1.66c0,.24.09.45.25.61.16.16.37.25.61.25h2.71v.75c0,.53-.13,1.02-.39,1.47-.26.45-.61.8-1.06,1.06-.9.52-1.98.53-2.89-.02-.45-.27-.81-.65-1.08-1.11-.27-.46-.4-.96-.4-1.49v-4.9c0-.53.13-1.03.4-1.49s.63-.84,1.08-1.11c.44-.27.93-.41,1.44-.41,1.1,0,1.97.36,2.67,1.09.24.28.51.33.69.33.23,0,.44-.1.64-.3l1.03-1.08c.18-.22.27-.45.27-.69s-.08-.46-.23-.64c-.62-.7-1.38-1.24-2.25-1.61-.87-.36-1.83-.55-2.84-.55-1.17,0-2.26.29-3.24.87-.98.58-1.77,1.36-2.34,2.34-.58.98-.87,2.07-.87,3.24v4.9c0,1.17.29,2.26.87,3.24.57.98,1.36,1.77,2.34,2.34.98.58,2.07.87,3.24.87s2.23-.29,3.22-.87c.98-.57,1.77-1.36,2.34-2.34.58-.98.87-2.07.87-3.24v-2.67c0-.38-.13-.7-.4-.97Z"/><path fill="#FFFFFF" d="M11.97,60.08c.2.2.31.45.31.72,0,.21-.07.41-.21.59-.64.72-1.39,1.27-2.25,1.64-.86.37-1.79.56-2.77.56-1.14,0-2.21-.29-3.17-.87-.96-.58-1.74-1.36-2.31-2.34-.57-.98-.86-2.07-.86-3.24v-4.9c0-1.17.29-2.26.86-3.24.57-.98,1.34-1.77,2.31-2.34,1.8-1.08,4.1-1.11,5.94-.32.86.37,1.61.91,2.21,1.61.15.18.23.4.23.64s-.09.47-.27.69l-1.03,1.08c-.2.2-.41.3-.64.3-.18,0-.45-.06-.69-.33-.67-.74-1.5-1.09-2.55-1.09-.5,0-.95.13-1.38.4-.43.27-.78.65-1.04,1.11-.26.46-.39.97-.39,1.5v 4.9c0,.53.13,1.03.39,1.5.26.46.61.84,1.04,1.11.43.27.88.4,1.38.4,1.05,0,1.88-.36,2.55-1.1.24-.27.5-.33.67-.33s.41.05.66.29l1.02,1.07ZM25.84,48.99c.58.98.87,2.07.87,3.24v4.9c0,1.17-.29,2.26-.87,3.24-.58.98-1.37,1.77-2.36,2.34-.99.58-2.08.87-3.25.87s-2.26-.29-3.25-.87c-.99-.57-1.78-1.36-2.36-2.34-.58-.98-.87-2.07-.87-3.24v-4.9c0-1.17.29-2.26.87-3.24.58-.98,1.37-1.77,2.36-2.34,1.98-1.15,4.52-1.15,6.5,0,.99.58,1.78,1.36,2.36,2.34ZM22.75,50.74c-.27-.46-.63-.84-1.08-1.11-.44-.27-.93-.41-1.44-.41s-.99.13-1.44.41c-.45.27-.81.65-1.08,1.11-.27.46-.4.96-.4,1.49v4.9c0,.53.13,1.03.4,1.49.27.46.63.84,1.08,1.11.9.54,1.98.54,2.88,0h0c.45-.27.81-.65,1.08-1.11.27-.46.4-.96.4-1.49v-4.9c0-.53-.13-1.03-.4-1.49ZM44.99,46.3c-.22-.19-.48-.29-.79-.29h-1.91c-.25,0-.47.07-.67.21-.2.14-.34.33-.4.56l-3.48,10.67-.1.33-3.56-10.97c-.07-.23-.2-.42-.4-.57-.2-.15-.42-.23-.68-.23h-2.09c-.31,0-.57.1-.79.29-.22.19-.34.45-.36.73l-1.91,15.27c-.03.34.09.56.2.69.11.13.32.29.68.29h1.73c.24,0,.47-.09.66-.25.19-.16.31-.38.36-.66l1.01-9.22,3.09,9.49c.07.23.21.43.41.57.19.14.42.21.67.21h1.75c.25,0,.48-.08.68-.23.19-.15.33-.34.39-.56l2.97-9.2.09-.31,1.04,9.27c.02.25.14.47.33.64.19.17.43.25.68.25h1.8c.35,0,.56-.16.68-.29.11-.13.23-.35.2-.71l-1.91-15.24c-.02-.29-.15-.55-.37-.75ZM65.59,46.3c-.22-.19-.48-.29-.79-.29h-1.91c-.25,0-.47.07-.66.21-.2.14-.34.33-.41.56l-3.48,10.67-.1.33-3.56-10.97c-.07-.23-.2-.42-.4-.57-.2-.15-.42-.23-.68-.23h-2.09c-.31,0-.57.1-.79.29-.22.19-.34.45-.36.73l-1.91,15.27c-.03.34.09.56.2.69.11.13.32.29.68.29h1.73 ```xml
c.24,0,.47-.09.66-.25.19-.16.31-.38.36-.66l1.01-9.22,3.09,9.49c.07.24.21.43.41.57.19.14.42.21.67.21h1.75c.25,0,.48-.08.68-.23.19-.15.33-.34.39-.56l2.97-9.2.09-.31,1.04,9.27c.02.25.14.47.33.64.19.17.42.25.68.25h1.8c.35,0,.56-.16.68-.29.11-.13.23-.35.2-.71l-1.91-15.24c-.02-.29-.15-.55-.37-.75ZM81.38,46.08h-1.84c-.24,0-.45.09-.61.25-.16.16-.25.37-.25.61v9.85c0,1-.27,1.82-.81,2.42-.54.6-1.23.89-2.1.89s-1.59-.29-2.13-.89c-.55-.61-.81-1.4-.81-2.42v-9.85c0-.24-.09-.45-.25-.61s-.37-.25-.61-.25h-1.84c-.24,0-.45.09-.61.25-.16.16-.25.37-.25.61v9.74c0,1.3.28,2.49.84,3.53.56,1.05,1.34,1.88,2.32,2.48.98.6,2.11.91,3.34.91s2.33-.3,3.31-.89c.98-.59,1.77-1.43,2.32-2.48.56-1.05.84-2.24.84-3.54v-9.74c0-.24-.09-.45-.25-.61s-.37-.25-.61-.25ZM96.82,46.08h-1.66c-.24,0-.45.09-.61.25-.16.16-.25.37-.25.61v9.73l-5.94-10.07c-.22-.33-.55-.51-.93-.51h-1.89c-.28,0-.54.11-.74.31-.2.2-.31.45-.31.74v15.31c0,.24.09.45.25.61h0c.16.16.37.25.61.25h1.66c.23,0,.44-.08.6-.22.12-.11.26-.31.26-.63v-9.69l5.92,10.03c.22.34.55.51.93.51h1.91c.28,0,.54-.11.74-.31.2-.2.31-.45.31-.74v-15.31c0-.24-.09-.45-.25-.61-.16-.16-.37-.25-.61-.25ZM107.22,46.08h-6.72c-.24,0-.45.09-.61.25-.16.16-.25.37-.25.61v1.59c0,.24.09.45.25.61.16.16.37.25.61.25h1.58v10.6h-1.58c-.24,0-.45.09-.61.25-.16.16-.25.37-.25.61v1.59c0,.24.09.45.25.61s.37.25.61.25h6.72c.24,0,.45-.09.61-.25.16-.16.25-.37.25-.61v-1.59c0-.24-.09-.45-.25-.61-.16-.16-.37-.25-.61-.25h-1.58v-10.6h1.58c.24,0,.45-.09.61-.25.16-.16.25-.37.25-.61v-1.59c0-.24-.09-.45-.25-.61-.16-.16-.37-.25-.61-.25ZM119.32,59.01c-.2-.19-.42-.29-.66-.29-.17,0-.43.06-.67.33-.67.74-1. ```xml
5,1.1-2.55,1.1-.5,0-.95-.13-1.38-.4-.43-.27-.78-.65-1.04-1.11-.26-.46-.39-.97-.39-1.5v-4.9c0-.53.13-1.03.39-1.5.26-.46.61-.84,1.04-1.11.43-.27.88-.4,1.38-.4,1.05,0,1.88.36,2.55,1.09.24.28.51.33.69.33.23,0,.44-.1.64-.3l1.03-1.08c.18-.22.27-.45.27-.69s-.08-.46-.23-.64c-.6-.7-1.35-1.24-2.21-1.61-1.85-.78-4.14-.75-5.94.32-.96.58-1.74,1.36-2.31,2.34-.57.98-.86,2.07-.86,3.24v4.9c0,1.17.29,2.26.86,3.24.57.98,1.34,1.77,2.31,2.34.97.58,2.04.87,3.17.87.98,0,1.92-.19,2.77-.56.86-.37,1.61-.92,2.25-1.64.14-.19.21-.39.21-.59,0-.27-.11-.52-.31-.72l-1.02-1.07ZM135.32,62.08c.03.08.04.18.04.3,0,.26-.1.48-.28.65-.18.16-.4.25-.65.25h-1.66c-.25,0-.48-.08-.68-.23-.19-.15-.33-.34-.4-.57l-.95-3.05h-4.83l-.95,3.05c-.07.23-.2.42-.39.57-.2.15-.42.23-.68.23h-1.61c-.25,0-.47-.09-.65-.25-.18-.17-.28-.4-.28-.66,0-.12.01-.22.04-.3l4.99-15.35c.07-.23.2-.42.4-.56.19-.14.42-.21.67-.21h1.8c.25,0,.47.07.67.21.2.14.34.33.41.57l4.99,15.34ZM128.33,51.6l-1.38,4.49h2.76l-1.38-4.49ZM145.43,46.33c.16.16.25.37.25.61v1.73c0,.24-.09.45-.25.61-.16.16-.37.25-.61.25h-3.49v12.91c0,.24-.09.45-.25.61-.16.16-.37.25-.61.25h-1.84c-.24,0-.45-.09-.61-.25h0c-.16-.16-.25-.37-.25-.61v-12.91h-3.49c-.24,0-.45-.09-.61-.25s-.25-.37-.25-.61v-1.73c0-.24.09-.45.25-.61.16-.16.37-.25.61-.25h10.54c.24,0,.45.09.61.25ZM138.28,62.77s0,0,0,0h0ZM155.21,46.08h-6.72c-.24,0-.45.09-.61.25-.16.16-.25.37-.25.61v1.59c0,.24.09.45.25.61.16.16.37.25.61.25h1.58v10.6h-1.58c-.24,0-.45.09-.61.25-.16.16-.25.37-.25.61v1.59c0,.24.09.45.25.61s.37.25.61.25h6.72c.24,0,.45-.09.61-.25.16-.16.25-.37.25-.61v-1.59c0-.24 .09-.45-.25-.61-.16-.16-.37-.25-.61-.25h-1.58v-10.6h1.58c.24,0,.45-.09.61-.25.16-.16.25-.37.25-.61v-1.59c0-.24-.09-.45-.25-.61-.16-.16-.37-.25-.61-.25ZM169.02,48.99c.58.98.87,2.07.87,3.24v4.9c0,1.17-.29,2.26-.87,3.24-.58.98-1.37,1.77-2.36,2.34-.99.58-2.08.87-3.25.87s-2.26-.29-3.25-.87c-.99-.57-1.78-1.36-2.36-2.34-.58-.98-.87-2.07-.87-3.24v-4.9c0-1.17.29-2.26.87-3.24.58-.98,1.37-1.77,2.36-2.34,1.98-1.15,4.52-1.15,6.5,0,.99.58,1.78,1.36,2.36,2.34ZM165.93,50.74c-.27-.46-.63-.84-1.08-1.11-.45-.27-.92-.41-1.44-.41s-.99.13-1.44.41c-.45.27-.81.65-1.08,1.11-.27.46-.4.96-.4,1.49v4.9c0,.53.13,1.03.4,1.49.27.46.63.84,1.08,1.11.9.55,1.98.55,2.88,0h0c.45-.27.81-.65,1.08-1.11.26-.46.4-.96.4-1.49v-4.9c0-.53-.13-1.03-.4-1.49ZM184.83,46.33c-.16-.16-.37-.25-.61-.25h-1.66c-.24,0-.45.09-.61.25-.16.16-.25.37-.25.61v9.73l-5.94-10.07c-.22-.33-.55-.51-.93-.51h-1.89c-.28,0-.54.11-.74.31-.2.2-.31.45-.31.74v15.31c0,.24.09.45.25.61h0c.16.16.37.25.61.25h1.66c.23,0,.44-.08.6-.22.12-.11.26-.31.26-.63v-9.69l5.92,10.03c.22.34.55.51.93.51h1.91c.28,0,.54-.11.74-.3.2-.2.31-.45.31-.74v-15.31c0-.24-.09-.45-.25-.61Z"/>
</svg>